<mxfile host="app.diagrams.net" modified="2023-01-30T02:33:50.235Z" agent="5.0 (Macintosh; Intel Mac OS X 10_15_2) AppleWebKit/537.36 (KHTML, like Gecko) Chrome/109.0.0.0 Safari/537.36" etag="y5tUHCHgPDEoE5vVa-MY" version="15.5.8" type="github">
  <diagram id="Y-wK2R0T7eLiNjNqOuau" name="Page-1">
    <mxGraphModel dx="946" dy="510" grid="1" gridSize="10" guides="1" tooltips="1" connect="1" arrows="1" fold="1" page="1" pageScale="1" pageWidth="827" pageHeight="1169" math="0" shadow="0">
      <root>
        <mxCell id="0" />
        <mxCell id="1" parent="0" />
        <mxCell id="rxr6gGZ8pc-mimZAHE2h-7" style="edgeStyle=orthogonalEdgeStyle;curved=1;rounded=0;orthogonalLoop=1;jettySize=auto;html=1;entryX=0;entryY=0.5;entryDx=0;entryDy=0;strokeWidth=2;fillColor=#dae8fc;strokeColor=#6c8ebf;" edge="1" parent="1" source="rxr6gGZ8pc-mimZAHE2h-1" target="rxr6gGZ8pc-mimZAHE2h-5">
          <mxGeometry relative="1" as="geometry" />
        </mxCell>
        <mxCell id="rxr6gGZ8pc-mimZAHE2h-1" value="" style="ellipse;whiteSpace=wrap;html=1;aspect=fixed;fillColor=#dae8fc;strokeColor=#6c8ebf;strokeWidth=2;" vertex="1" parent="1">
          <mxGeometry x="190" y="120" width="30" height="30" as="geometry" />
        </mxCell>
        <mxCell id="rxr6gGZ8pc-mimZAHE2h-8" style="edgeStyle=orthogonalEdgeStyle;curved=1;rounded=0;orthogonalLoop=1;jettySize=auto;html=1;entryX=0.5;entryY=0;entryDx=0;entryDy=0;strokeWidth=2;fillColor=#d5e8d4;strokeColor=#82b366;" edge="1" parent="1" source="rxr6gGZ8pc-mimZAHE2h-2" target="rxr6gGZ8pc-mimZAHE2h-5">
          <mxGeometry relative="1" as="geometry" />
        </mxCell>
        <mxCell id="rxr6gGZ8pc-mimZAHE2h-2" value="" style="ellipse;whiteSpace=wrap;html=1;aspect=fixed;fillColor=#d5e8d4;strokeColor=#82b366;strokeWidth=2;" vertex="1" parent="1">
          <mxGeometry x="350" y="120" width="30" height="30" as="geometry" />
        </mxCell>
        <mxCell id="rxr6gGZ8pc-mimZAHE2h-10" style="edgeStyle=orthogonalEdgeStyle;curved=1;rounded=0;orthogonalLoop=1;jettySize=auto;html=1;entryX=1;entryY=0.5;entryDx=0;entryDy=0;strokeWidth=2;fillColor=#fff2cc;strokeColor=#d6b656;" edge="1" parent="1" source="rxr6gGZ8pc-mimZAHE2h-4" target="rxr6gGZ8pc-mimZAHE2h-5">
          <mxGeometry relative="1" as="geometry" />
        </mxCell>
        <mxCell id="rxr6gGZ8pc-mimZAHE2h-4" value="" style="ellipse;whiteSpace=wrap;html=1;aspect=fixed;fillColor=#fff2cc;strokeColor=#d6b656;strokeWidth=2;" vertex="1" parent="1">
          <mxGeometry x="510" y="120" width="30" height="30" as="geometry" />
        </mxCell>
        <mxCell id="rxr6gGZ8pc-mimZAHE2h-16" style="edgeStyle=orthogonalEdgeStyle;curved=1;rounded=0;orthogonalLoop=1;jettySize=auto;html=1;exitX=0.5;exitY=1;exitDx=0;exitDy=0;entryX=0.5;entryY=0.1;entryDx=0;entryDy=0;entryPerimeter=0;fontSize=16;strokeWidth=2;" edge="1" parent="1" source="rxr6gGZ8pc-mimZAHE2h-5" target="rxr6gGZ8pc-mimZAHE2h-14">
          <mxGeometry relative="1" as="geometry" />
        </mxCell>
        <mxCell id="rxr6gGZ8pc-mimZAHE2h-26" style="edgeStyle=orthogonalEdgeStyle;curved=1;rounded=0;orthogonalLoop=1;jettySize=auto;html=1;fontSize=12;strokeWidth=2;dashed=1;fillColor=#f8cecc;strokeColor=#b85450;entryX=0;entryY=0.5;entryDx=0;entryDy=0;" edge="1" parent="1" source="rxr6gGZ8pc-mimZAHE2h-5" target="rxr6gGZ8pc-mimZAHE2h-29">
          <mxGeometry relative="1" as="geometry">
            <Array as="points">
              <mxPoint x="365" y="350" />
              <mxPoint x="170" y="350" />
              <mxPoint x="170" y="600" />
            </Array>
          </mxGeometry>
        </mxCell>
        <mxCell id="rxr6gGZ8pc-mimZAHE2h-5" value="" style="ellipse;whiteSpace=wrap;html=1;aspect=fixed;strokeWidth=2;" vertex="1" parent="1">
          <mxGeometry x="350" y="220" width="30" height="30" as="geometry" />
        </mxCell>
        <mxCell id="rxr6gGZ8pc-mimZAHE2h-12" value="" style="endArrow=none;dashed=1;html=1;rounded=0;strokeWidth=2;curved=1;" edge="1" parent="1">
          <mxGeometry width="50" height="50" relative="1" as="geometry">
            <mxPoint x="60" y="280" as="sourcePoint" />
            <mxPoint x="730" y="280" as="targetPoint" />
          </mxGeometry>
        </mxCell>
        <mxCell id="rxr6gGZ8pc-mimZAHE2h-27" style="edgeStyle=orthogonalEdgeStyle;curved=1;rounded=0;orthogonalLoop=1;jettySize=auto;html=1;entryX=0.5;entryY=0;entryDx=0;entryDy=0;fontSize=12;strokeWidth=2;" edge="1" parent="1" source="rxr6gGZ8pc-mimZAHE2h-14" target="rxr6gGZ8pc-mimZAHE2h-24">
          <mxGeometry relative="1" as="geometry" />
        </mxCell>
        <mxCell id="rxr6gGZ8pc-mimZAHE2h-28" style="edgeStyle=orthogonalEdgeStyle;curved=1;rounded=0;orthogonalLoop=1;jettySize=auto;html=1;entryX=0.5;entryY=0;entryDx=0;entryDy=0;fontSize=12;strokeWidth=2;" edge="1" parent="1" source="rxr6gGZ8pc-mimZAHE2h-14" target="rxr6gGZ8pc-mimZAHE2h-25">
          <mxGeometry relative="1" as="geometry" />
        </mxCell>
        <mxCell id="rxr6gGZ8pc-mimZAHE2h-14" value="" style="ellipse;shape=cloud;whiteSpace=wrap;html=1;strokeWidth=2;fillColor=#f5f5f5;strokeColor=#666666;fontColor=#333333;" vertex="1" parent="1">
          <mxGeometry x="294" y="335" width="120" height="80" as="geometry" />
        </mxCell>
        <mxCell id="rxr6gGZ8pc-mimZAHE2h-15" value="&lt;h1&gt;&lt;font style=&quot;font-size: 16px&quot;&gt;控件属性变更操作&lt;/font&gt;&lt;/h1&gt;&lt;p&gt;Update Component RecipientId&lt;/p&gt;&lt;p&gt;Update Component Type&lt;/p&gt;&lt;p&gt;Update Component Width/Height&lt;/p&gt;&lt;p&gt;Update Component FontSize/TextDecoration/FontAlign&lt;/p&gt;" style="text;html=1;strokeColor=none;fillColor=none;spacing=5;spacingTop=-20;whiteSpace=wrap;overflow=hidden;rounded=0;" vertex="1" parent="1">
          <mxGeometry x="430" y="290" width="190" height="170" as="geometry" />
        </mxCell>
        <mxCell id="rxr6gGZ8pc-mimZAHE2h-17" value="" style="endArrow=none;dashed=1;html=1;rounded=0;strokeWidth=2;curved=1;" edge="1" parent="1">
          <mxGeometry width="50" height="50" relative="1" as="geometry">
            <mxPoint x="60" y="470" as="sourcePoint" />
            <mxPoint x="730" y="470" as="targetPoint" />
          </mxGeometry>
        </mxCell>
        <mxCell id="rxr6gGZ8pc-mimZAHE2h-18" value="&lt;span style=&quot;font-size: 12px&quot;&gt;Click&lt;/span&gt;" style="text;html=1;strokeColor=none;fillColor=none;align=center;verticalAlign=middle;whiteSpace=wrap;rounded=0;fontSize=16;" vertex="1" parent="1">
          <mxGeometry x="175" y="90" width="60" height="30" as="geometry" />
        </mxCell>
        <mxCell id="rxr6gGZ8pc-mimZAHE2h-19" value="&lt;span style=&quot;font-size: 12px&quot;&gt;Add&lt;/span&gt;" style="text;html=1;strokeColor=none;fillColor=none;align=center;verticalAlign=middle;whiteSpace=wrap;rounded=0;fontSize=16;" vertex="1" parent="1">
          <mxGeometry x="330" y="90" width="60" height="30" as="geometry" />
        </mxCell>
        <mxCell id="rxr6gGZ8pc-mimZAHE2h-20" value="&lt;span style=&quot;font-size: 12px&quot;&gt;Flash Capsule（闪念胶囊）&lt;/span&gt;" style="text;html=1;strokeColor=none;fillColor=none;align=center;verticalAlign=middle;whiteSpace=wrap;rounded=0;fontSize=16;" vertex="1" parent="1">
          <mxGeometry x="440" y="90" width="170" height="30" as="geometry" />
        </mxCell>
        <mxCell id="rxr6gGZ8pc-mimZAHE2h-22" value="&lt;span style=&quot;font-size: 12px&quot;&gt;Old Componnent Attributes&lt;/span&gt;" style="text;html=1;strokeColor=none;fillColor=none;align=center;verticalAlign=middle;whiteSpace=wrap;rounded=0;fontSize=16;" vertex="1" parent="1">
          <mxGeometry x="370" y="240" width="190" height="30" as="geometry" />
        </mxCell>
        <mxCell id="rxr6gGZ8pc-mimZAHE2h-32" style="edgeStyle=orthogonalEdgeStyle;curved=1;rounded=0;orthogonalLoop=1;jettySize=auto;html=1;entryX=0.5;entryY=0;entryDx=0;entryDy=0;fontSize=12;strokeWidth=2;" edge="1" parent="1" source="rxr6gGZ8pc-mimZAHE2h-24" target="rxr6gGZ8pc-mimZAHE2h-29">
          <mxGeometry relative="1" as="geometry" />
        </mxCell>
        <mxCell id="rxr6gGZ8pc-mimZAHE2h-24" value="撤销" style="rounded=0;whiteSpace=wrap;html=1;fontSize=12;strokeWidth=2;fillColor=#f8cecc;strokeColor=#b85450;" vertex="1" parent="1">
          <mxGeometry x="199" y="510" width="95" height="30" as="geometry" />
        </mxCell>
        <mxCell id="rxr6gGZ8pc-mimZAHE2h-35" style="edgeStyle=orthogonalEdgeStyle;curved=1;rounded=0;orthogonalLoop=1;jettySize=auto;html=1;entryX=0.5;entryY=0;entryDx=0;entryDy=0;fontSize=12;strokeWidth=2;" edge="1" parent="1" source="rxr6gGZ8pc-mimZAHE2h-25" target="rxr6gGZ8pc-mimZAHE2h-34">
          <mxGeometry relative="1" as="geometry" />
        </mxCell>
        <mxCell id="rxr6gGZ8pc-mimZAHE2h-25" value="更新" style="rounded=0;whiteSpace=wrap;html=1;fontSize=12;strokeWidth=2;fillColor=#dae8fc;strokeColor=#6c8ebf;" vertex="1" parent="1">
          <mxGeometry x="400" y="510" width="95" height="30" as="geometry" />
        </mxCell>
        <mxCell id="rxr6gGZ8pc-mimZAHE2h-29" value="" style="ellipse;whiteSpace=wrap;html=1;aspect=fixed;strokeWidth=2;" vertex="1" parent="1">
          <mxGeometry x="231.5" y="585" width="30" height="30" as="geometry" />
        </mxCell>
        <mxCell id="rxr6gGZ8pc-mimZAHE2h-33" value="&lt;span style=&quot;font-size: 12px&quot;&gt;Old Componnent Attributes&lt;/span&gt;" style="text;html=1;strokeColor=none;fillColor=none;align=center;verticalAlign=middle;whiteSpace=wrap;rounded=0;fontSize=16;" vertex="1" parent="1">
          <mxGeometry x="151.5" y="620" width="190" height="30" as="geometry" />
        </mxCell>
        <mxCell id="rxr6gGZ8pc-mimZAHE2h-34" value="" style="ellipse;whiteSpace=wrap;html=1;aspect=fixed;fillColor=#dae8fc;strokeColor=#6c8ebf;strokeWidth=2;" vertex="1" parent="1">
          <mxGeometry x="432.5" y="585" width="30" height="30" as="geometry" />
        </mxCell>
        <mxCell id="rxr6gGZ8pc-mimZAHE2h-36" value="&lt;span style=&quot;font-size: 12px&quot;&gt;New Componnent Attributes&lt;/span&gt;" style="text;html=1;strokeColor=none;fillColor=none;align=center;verticalAlign=middle;whiteSpace=wrap;rounded=0;fontSize=16;" vertex="1" parent="1">
          <mxGeometry x="352.5" y="620" width="190" height="30" as="geometry" />
        </mxCell>
        <mxCell id="rxr6gGZ8pc-mimZAHE2h-37" value="&lt;span style=&quot;font-size: 12px&quot;&gt;Active&lt;/span&gt;" style="text;html=1;strokeColor=none;fillColor=none;align=center;verticalAlign=middle;whiteSpace=wrap;rounded=0;fontSize=16;" vertex="1" parent="1">
          <mxGeometry x="294" y="240" width="60" height="30" as="geometry" />
        </mxCell>
      </root>
    </mxGraphModel>
  </diagram>
</mxfile>
